<?xml version="1.0"?>
<svg xmlns="http://www.w3.org/2000/svg" id="Layer_1" data-name="Layer 1" viewBox="0 0 512 512" width="512" height="512"><title>value customers users viewer</title><polygon points="48.652 320.211 95.362 320.211 92.128 309.613 38.054 309.613 58.491 477.061 67.795 477.061 48.652 320.211" style="fill:#d4e1f4"/><path d="M274.11,356.54a6.331,6.331,0,0,1-3.405-.475A6.359,6.359,0,0,0,274.11,368.2a225.2,225.2,0,0,1,40.934-1.889l46.729,2.115c.1,0,.192.007.288.007a6.358,6.358,0,0,0,6.358-6.359c0-.952-.036-1.894-.093-2.832l6.284-3.314L442.3,319.408a26.581,26.581,0,0,1,23.427-.926l8.421-5.783A26.612,26.612,0,0,0,442.3,307.75L374.61,344.268l-6.284,3.313c.057.938.093,1.881.093,2.832a6.358,6.358,0,0,1-6.358,6.359c-.1,0-.192,0-.288-.007l-46.729-2.115A225.11,225.11,0,0,0,274.11,356.54Z" style="fill:#d4e1f4"/><path d="M128.627,338.232l13.441-11.966a84.475,84.475,0,0,1,87.706-8.432l5.649,2.7a71.87,71.87,0,0,0,31.123,7.1H321.33a34.373,34.373,0,0,1,28.919,15.851l4.8.215a34.461,34.461,0,0,0-33.72-27.724H266.546a71.87,71.87,0,0,1-31.123-7.1l-5.649-2.7a84.472,84.472,0,0,0-87.706,8.431l-13.441,11.966A59.851,59.851,0,0,1,106.321,339.1l3.221,10.567A59.781,59.781,0,0,0,128.627,338.232Z" style="fill:#d4e1f4"/><path d="M435.1,298.2l-2.372,1.28c-9.582-11.628-26.183-16.134-38.831-9.724-.045.022-.09.046-.134.069l-5.6,3.015a42.527,42.527,0,0,0-48.7-4.4l-30.155,16.4H269.182a57.961,57.961,0,0,1-25.09-5.749l-5.52-2.67a94.693,94.693,0,0,0-98.552,9.625c-.131.1-.259.2-.381.313l-13.327,11.864a46.226,46.226,0,0,1-17.443,9.723L101.3,303.1a6,6,0,0,0-5.739-4.25H31.108a6,6,0,0,0-5.956,6.726l21.484,176.16a6,6,0,0,0,5.956,5.274h96.674a6,6,0,0,0,5.739-7.75l-12.7-41.674,39.554-25a23.8,23.8,0,0,1,17.365-2.247c.124.031.249.059.375.081l80.459,14.816a104.117,104.117,0,0,0,64.337-9.084,5.918,5.918,0,0,0,.734-.43l139.164-95.552a6,6,0,0,0,1.744-8.041A38.2,38.2,0,0,0,435.1,298.2Zm-35.717,2.228c7.315-3.663,16.524-.66,22.406,4.953l-52.772,28.47-3.1,1.633a45.752,45.752,0,0,0-7.228-13.131Zm-54.113-1.485c.047-.027.1-.053.142-.081a30.516,30.516,0,0,1,31.037.292L349.618,313.6a45.592,45.592,0,0,0-17.138-7.713ZM57.9,475.01,37.885,310.85H91.114l50.05,164.16Zm280.784-69.431a92.038,92.038,0,0,1-56.479,7.848l-80.261-14.78a35.777,35.777,0,0,0-26.085,3.535c-.093.051-.186.107-.277.165l-36.915,23.337-26.3-86.251a58.265,58.265,0,0,0,21.917-12.257l13.139-11.7a82.736,82.736,0,0,1,85.918-8.265l5.519,2.67a70.036,70.036,0,0,0,30.315,6.946h53.525a33.851,33.851,0,0,1,33.2,27.49l-38.795-1.755a232.313,232.313,0,0,0-42.22,1.951,6,6,0,0,0,1.646,11.886,219.979,219.979,0,0,1,40.031-1.848l45.656,2.065c.091,0,.182.006.272.006a6,6,0,0,0,6-6c0-.971-.041-1.933-.1-2.89l6.261-3.3L440.8,308.756a26.214,26.214,0,0,1,31.544,5.056Z" style="fill:#0635c9"/><path d="M76.974,450.188a18.89,18.89,0,1,0,18.89-18.89A18.911,18.911,0,0,0,76.974,450.188Zm18.89-6.89a6.89,6.89,0,1,1-6.89,6.89A6.9,6.9,0,0,1,95.864,443.3Z" style="fill:#0635c9"/><path d="M256.079,24.99a45.6,45.6,0,0,0-45.544,45.543V90.305a45.544,45.544,0,0,0,91.087,0V70.533A45.6,45.6,0,0,0,256.079,24.99Zm33.543,65.315a33.544,33.544,0,0,1-67.087,0V70.533a33.544,33.544,0,0,1,67.087,0Z" style="fill:#1ae5be"/><path d="M331.13,90.872v17.307a40.612,40.612,0,1,0,81.224,0V90.872a40.612,40.612,0,1,0-81.224,0Zm69.224,0v17.307a28.612,28.612,0,1,1-57.224,0V90.872a28.612,28.612,0,1,1,57.224,0Z" style="fill:#1ae5be"/><path d="M399.892,149.853c-3.2-.235-4.845,1.791-6.179,3.418a27.535,27.535,0,0,1-43.442-1.061,6,6,0,0,0-4.975-2.433,44.48,44.48,0,0,0-22.071,6.439,50.437,50.437,0,0,0-35.2-17.459c-3.1-.126-4.668,1.756-6.187,3.6a32.308,32.308,0,0,1-50.977-1.245,5.982,5.982,0,0,0-4.975-2.432,50.215,50.215,0,0,0-34.845,15.2c-.758.775-1.477,1.578-2.178,2.393a44.612,44.612,0,0,0-20.457-6.422c-3.189-.235-4.846,1.791-6.179,3.418a27.534,27.534,0,0,1-43.441-1.061,6.015,6.015,0,0,0-4.975-2.433A44.955,44.955,0,0,0,70,194.709v38.944a6,6,0,0,0,6,6H176.668v13.772a6,6,0,0,0,6,6H329.49a6,6,0,0,0,6-6V239.653H436a6,6,0,0,0,6-6V194.709A44.973,44.973,0,0,0,399.892,149.853ZM82,227.653V194.709a33.179,33.179,0,0,1,29.254-32.738,39.538,39.538,0,0,0,59.191.151,32.735,32.735,0,0,1,11.71,4.132,50.271,50.271,0,0,0-5.487,22.908v38.491Zm241.49,19.772H188.668V189.162a38.763,38.763,0,0,1,34.628-38.3,44.315,44.315,0,0,0,66.934.159,38.54,38.54,0,0,1,33.26,38.141ZM430,227.653H335.49V189.162a50.2,50.2,0,0,0-5.545-22.974,32.433,32.433,0,0,1,12.789-4.221,39.541,39.541,0,0,0,59.2.155A32.987,32.987,0,0,1,430,194.709Z" style="fill:#1ae5be"/><path d="M140.258,148.791a40.659,40.659,0,0,0,40.612-40.612V90.872a40.612,40.612,0,1,0-81.224,0v17.307A40.658,40.658,0,0,0,140.258,148.791ZM111.646,90.872a28.612,28.612,0,1,1,57.224,0v17.307a28.612,28.612,0,1,1-57.224,0Z" style="fill:#1ae5be"/></svg>
